<?xml version="1.0" encoding="iso-8859-1"?>
<!-- Generator: Adobe Illustrator 19.0.0, SVG Export Plug-In . SVG Version: 6.00 Build 0)  -->
<svg version="1.1" id="Layer_1" xmlns="http://www.w3.org/2000/svg" xmlns:xlink="http://www.w3.org/1999/xlink" x="0px" y="0px"
	 viewBox="0 0 512.003 512.003" style="enable-background:new 0 0 512.003 512.003;" xml:space="preserve">
<g>
	<g>
		<g>
			<path d="M488.655,81.647C472.518,33.408,426.583,0,375.468,0c-29.636,0-72.96,22.417-79.974,26.146L241.691,40.67
				c-11.486,1.911-19.823,11.75-19.823,23.398v22.289c-20.727,2.432-40.081,9.224-57.148,19.43l26.778,43.81
				c9.233-5.47,19.473-9.378,30.37-11.426v36.693c0,11.648,8.337,21.487,19.004,23.228l54.622,14.694
				c7.031,3.738,50.338,26.146,79.974,26.146c51.115,0,97.05-33.408,113.186-81.647c13.79-7.074,23.347-21.282,23.347-37.82
				S502.444,88.721,488.655,81.647z M273.068,110.933c0,4.71-3.823,8.533-8.533,8.533s-8.533-3.823-8.533-8.533V76.8
				c0-4.71,3.823-8.533,8.533-8.533s8.533,3.823,8.533,8.533V110.933z M427.471,127.497c0,0.017,0.009,0.026,0.017,0.043
				c0.265,1.391,0.742,2.697,1.143,4.036c0.017,0.051,0.026,0.094,0.043,0.145c0.324,1.075,0.572,2.176,0.99,3.217
				c0.008,0.034,0.026,0.06,0.043,0.094c0.674,1.715,1.545,3.311,2.423,4.907c0.043,0.06,0.06,0.128,0.094,0.188
				c0.307,0.538,0.546,1.101,0.879,1.63c0.017,0.034,0.051,0.06,0.077,0.102c1.126,1.809,2.415,3.473,3.789,5.094
				c0.06,0.06,0.102,0.137,0.162,0.205c0.154,0.179,0.256,0.375,0.41,0.555c-10.999,24.141-35.294,40.021-62.071,40.021
				c-37.641,0-68.267-30.626-68.267-68.267S337.828,51.2,375.468,51.2c26.778,0,51.072,15.881,62.071,40.03
				c-0.145,0.154-0.239,0.341-0.375,0.503c-0.06,0.068-0.102,0.154-0.162,0.222c-1.391,1.621-2.697,3.302-3.823,5.129
				c-0.026,0.034-0.06,0.068-0.085,0.102c-0.324,0.521-0.563,1.084-0.862,1.613c-0.034,0.068-0.06,0.137-0.094,0.196
				c-0.888,1.596-1.758,3.191-2.432,4.907c-0.009,0.034-0.034,0.06-0.043,0.085c-0.418,1.058-0.666,2.159-0.998,3.243
				c-0.017,0.051-0.026,0.102-0.043,0.145c-0.393,1.34-0.87,2.628-1.135,4.011c-0.009,0.017-0.017,0.034-0.017,0.051
				c-0.512,2.628-0.802,5.308-0.802,8.03C426.668,122.189,426.958,124.868,427.471,127.497z M479.712,142.822l-1.084,0.427
				c-1.997,0.785-3.994,1.22-5.973,1.485c-0.708,0.094-1.417,0.179-2.142,0.213c-0.828,0.034-1.647,0.034-2.458-0.009
				c-0.495-0.026-0.973-0.094-1.451-0.145c-5.606-0.674-10.76-3.208-14.754-7.014c-0.768-0.725-1.527-1.459-2.193-2.261
				c-0.623-0.751-1.143-1.579-1.681-2.398c-0.512-0.777-1.05-1.544-1.468-2.372c-0.521-1.033-0.896-2.142-1.271-3.243
				c-0.256-0.725-0.572-1.425-0.759-2.167c-0.461-1.886-0.742-3.849-0.742-5.871s0.282-3.985,0.742-5.879
				c0.179-0.725,0.503-1.408,0.742-2.125c0.384-1.118,0.759-2.236,1.289-3.285c0.418-0.811,0.947-1.57,1.451-2.338
				c0.538-0.828,1.075-1.664,1.707-2.423c0.657-0.802,1.408-1.527,2.176-2.244c4.028-3.84,9.233-6.4,14.899-7.04
				c0.41-0.043,0.811-0.102,1.229-0.128c0.862-0.051,1.732-0.051,2.603-0.008c0.666,0.034,1.314,0.111,1.963,0.196
				c2.014,0.256,4.053,0.7,6.093,1.493l1.084,0.427c8.951,3.994,15.223,12.937,15.223,23.356S488.663,138.829,479.712,142.822z"/>
			<path d="M198.265,241.685c-1.911-11.477-11.75-19.814-23.398-19.814h-29.355c0.649-6.776,2.014-13.372,4.036-19.695
				l-42.701-31.317c-7.134,15.753-11.418,32.964-12.51,51.012H64.07c-11.648,0-21.487,8.337-23.228,19.004l-14.694,54.622
				c-3.738,7.031-26.146,50.338-26.146,79.974c0,51.115,33.408,97.05,81.647,113.186c7.074,13.79,21.282,23.347,37.82,23.347
				s30.746-9.557,37.82-23.347c48.239-16.137,81.647-62.071,81.647-113.186c0-29.636-22.417-72.96-26.155-79.974L198.265,241.685z
				 M128.002,256.003h34.133c4.71,0,8.533,3.814,8.533,8.533c0,4.71-3.823,8.533-8.533,8.533h-34.133
				c-4.71,0-8.533-3.823-8.533-8.533C119.468,259.818,123.291,256.003,128.002,256.003z M144.591,474.039
				c-0.299,1.536-0.751,3.063-1.34,4.591l-0.427,1.084c-3.994,8.943-12.945,15.223-23.356,15.223
				c-10.419,0-19.362-6.281-23.356-15.223l-0.427-1.084c-0.597-1.527-1.041-3.055-1.34-4.591c-0.29-1.527-0.478-3.098-0.478-4.702
				c0-1.587,0.188-3.123,0.469-4.625c0.085-0.469,0.205-0.922,0.316-1.374c0.256-1.058,0.58-2.091,0.964-3.098
				c0.171-0.444,0.324-0.896,0.521-1.331c0.589-1.314,1.254-2.594,2.057-3.789l1.707-2.048c3.627-4.361,8.448-7.322,13.722-8.602
				c0.026-0.009,0.06-0.026,0.094-0.026c0.094-0.034,0.188-0.068,0.29-0.094c1.775-0.401,3.61-0.614,5.461-0.614
				s3.678,0.213,5.461,0.614c0.051,0.009,0.094,0.026,0.145,0.043c0.085,0.017,0.171,0.06,0.256,0.077
				c5.265,1.289,10.078,4.25,13.705,8.602l1.707,2.048c0.794,1.195,1.468,2.466,2.057,3.789c0.196,0.435,0.35,0.887,0.521,1.331
				c0.384,1.007,0.708,2.039,0.964,3.098c0.111,0.452,0.23,0.905,0.316,1.374c0.282,1.502,0.469,3.038,0.469,4.625
				C145.068,470.941,144.881,472.511,144.591,474.039z M147.705,437.542c-0.137-0.119-0.299-0.205-0.444-0.324
				c-0.068-0.068-0.154-0.111-0.222-0.171c-1.656-1.417-3.354-2.739-5.205-3.883c-0.043-0.026-0.068-0.06-0.102-0.077
				c-0.486-0.307-1.007-0.521-1.502-0.802c-0.068-0.043-0.145-0.068-0.213-0.111c-1.621-0.905-3.251-1.784-5.001-2.475
				c-0.026-0.008-0.06-0.034-0.085-0.043c-1.024-0.401-2.091-0.64-3.14-0.964c-0.051-0.017-0.102-0.026-0.154-0.043
				c-1.365-0.41-2.679-0.896-4.096-1.169c-0.017,0-0.034-0.009-0.051-0.009c-2.628-0.521-5.308-0.802-8.021-0.802
				c-2.722,0-5.402,0.282-8.021,0.802c-0.017,0-0.034,0.009-0.051,0.009c-1.417,0.273-2.739,0.759-4.096,1.169
				c-0.051,0.017-0.102,0.026-0.154,0.043c-1.05,0.324-2.116,0.563-3.14,0.964c-0.034,0.009-0.06,0.034-0.085,0.043
				c-1.749,0.691-3.379,1.57-5.001,2.475c-0.068,0.043-0.145,0.068-0.213,0.111c-0.495,0.282-1.016,0.495-1.502,0.802
				c-0.034,0.017-0.06,0.051-0.102,0.077c-1.852,1.143-3.558,2.466-5.205,3.883c-0.068,0.06-0.154,0.102-0.23,0.171
				c-0.136,0.12-0.299,0.205-0.435,0.324c-24.149-10.999-40.03-35.302-40.03-62.071c0-37.649,30.626-68.267,68.267-68.267
				s68.267,30.618,68.267,68.267C187.735,402.239,171.854,426.542,147.705,437.542z"/>
			<path d="M177.624,159.63l-26.974-44.134c-14.285,11.017-26.428,24.602-35.789,40.073l41.574,30.49
				C161.871,176.04,169.065,167.089,177.624,159.63z"/>
		</g>
	</g>
</g>
<g>
</g>
<g>
</g>
<g>
</g>
<g>
</g>
<g>
</g>
<g>
</g>
<g>
</g>
<g>
</g>
<g>
</g>
<g>
</g>
<g>
</g>
<g>
</g>
<g>
</g>
<g>
</g>
<g>
</g>
</svg>
